<?xml version="1.0" encoding="utf-8"?>
<!-- Generator: Adobe Illustrator 16.0.0, SVG Export Plug-In . SVG Version: 6.00 Build 0)  -->
<!DOCTYPE svg PUBLIC "-//W3C//DTD SVG 1.1//EN" "http://www.w3.org/Graphics/SVG/1.1/DTD/svg11.dtd">
<svg version="1.1" xmlns="http://www.w3.org/2000/svg" xmlns:xlink="http://www.w3.org/1999/xlink" x="0px" y="0px" width="200px"
	 height="200px" viewBox="0 0 200 200" enable-background="new 0 0 200 200" xml:space="preserve">
<g id="Layer_1">
</g>
<g id="Layer_2">
	<rect x="0.016" y="-0.063" fill="#2C3235" width="200" height="200"/>
	<path fill="#FFFFFF" d="M-87-505"/>
	<path fill="#FFFFFF" d="M77.93,178.602c-16.166-1.365,19.041-6.753,19.041-6.753c1.717-53.103,0.199-63.173,0.199-63.173
		c-0.424-21.601-12.317-23.239-12.317-23.239c-30.46-7.161-37.924-26.456-37.924-26.456c-8.434-20.023,3.155-29.332,3.155-29.332
		h102.394c0,0,11.591,9.309,3.155,29.332c0,0-7.463,19.295-37.924,26.456c0,0-11.893,1.638-12.316,23.239
		c0,0-1.517,10.07,0.2,63.173c0,0,35.207,5.388,19.04,6.753H77.93z"/>
	<path fill="#FFFFFF" d="M-43,108.333"/>
</g>
</svg>
