<?xml version="1.0" encoding="utf-8"?>
<!-- Generator: Adobe Illustrator 16.0.0, SVG Export Plug-In . SVG Version: 6.00 Build 0)  -->
<!DOCTYPE svg PUBLIC "-//W3C//DTD SVG 1.1//EN">
<svg version="1.1" id="Layer_1" xmlns="http://www.w3.org/2000/svg" xmlns:xlink="http://www.w3.org/1999/xlink" x="0px" y="0px"
	 width="213.002px" height="216px" viewBox="14.498 -159.5 213.002 216" enable-background="new 14.498 -159.5 213.002 216"
	 xml:space="preserve">
<g id="Layer_1_1_">
</g>
<path fill="#FFFFFF" d="M98.437-7.539c-15.62-1.319,18.397-6.524,18.397-6.524c1.66-51.31,0.193-61.041,0.193-61.041
	c-0.411-20.871-11.902-22.454-11.902-22.454c-29.431-6.919-36.643-25.562-36.643-25.562c-8.149-19.347,3.048-28.342,3.048-28.342
	h98.937c0,0,11.199,8.995,3.048,28.342c0,0-7.212,18.643-36.643,25.562c0,0-11.491,1.583-11.901,22.454
	c0,0-1.464,9.731,0.193,61.041c0,0,34.02,5.205,18.398,6.524H98.437z"/>
<g>
	<path fill="#FFFFFF" d="M35.514,37.356c0,3.404-0.651,5.881-1.955,7.431c-1.303,1.549-3.187,2.324-5.652,2.324
		c-2.794,0-5.154-0.845-7.079-2.536c-2.301-2.019-3.451-4.918-3.451-8.698c0-3.686,1.165-6.703,3.493-9.051
		c2-2.019,4.14-3.029,6.422-3.029c1.105,0,2.07,0.2,2.894,0.599c1.058,0.517,2.023,1.362,2.893,2.536l1.73-3.311h0.176v10.213
		l-0.282-0.176c0-3.018-0.836-5.438-2.507-7.263c-1.389-1.521-2.849-2.281-4.379-2.281c-2.048,0-3.52,0.944-4.415,2.831
		c-0.895,1.887-1.342,4.729-1.342,8.527c0,3.728,0.482,6.546,1.448,8.457c0.965,1.911,2.436,2.866,4.414,2.866
		c2.236,0,3.955-0.657,5.156-1.972c1.436-1.549,2.154-4.038,2.154-7.466H35.514z"/>
	<path fill="#FFFFFF" d="M51.01,39.398c0,2.277-0.787,4.167-2.36,5.67c-1.432,1.362-3.041,2.042-4.825,2.042
		c-1.831,0-3.428-0.634-4.789-1.902c-1.597-1.479-2.395-3.416-2.395-5.811c0-2.277,0.787-4.156,2.359-5.635
		c1.432-1.338,3.041-2.007,4.825-2.007c1.808,0,3.404,0.634,4.79,1.902C50.211,35.114,51.01,37.027,51.01,39.398z M47.347,39.398
		c0-2.606-0.224-4.438-0.669-5.494c-0.517-1.221-1.467-1.832-2.853-1.832c-1.268,0-2.172,0.587-2.711,1.761
		c-0.541,1.174-0.81,3.029-0.81,5.564c0,2.583,0.24,4.461,0.722,5.635c0.481,1.174,1.414,1.761,2.799,1.761
		c1.268,0,2.171-0.599,2.712-1.796C47.077,43.8,47.347,41.934,47.347,39.398z"/>
	<path fill="#FFFFFF" d="M62.666,34.433c-0.094-0.774-0.422-1.361-0.986-1.76s-1.265-0.599-2.103-0.599
		c-1.306,0-2.214,0.587-2.728,1.761c-0.513,1.174-0.769,3.029-0.769,5.564c0,2.348,0.33,4.126,0.99,5.335
		c0.661,1.209,1.544,1.813,2.652,1.813c1.32,0,2.439-0.431,3.359-1.295c1.155-1.097,1.733-2.708,1.733-4.832h0.282
		c0,2.066-0.541,3.698-1.62,4.895c-1.08,1.197-2.559,1.796-4.438,1.796c-1.526,0-2.946-0.61-4.261-1.831
		c-1.573-1.456-2.359-3.311-2.359-5.564c0-2.418,0.798-4.402,2.395-5.952c1.385-1.338,2.829-2.007,4.332-2.007
		c1.009,0,1.948,0.176,2.817,0.528c1.314,0.54,2.125,1.374,2.43,2.5c0.117,0.422,0.176,0.787,0.176,1.092
		c0,0.751-0.356,1.327-1.067,1.726c-0.261,0.165-0.569,0.246-0.924,0.246c-0.427,0-0.813-0.157-1.156-0.47
		c-0.344-0.313-0.516-0.737-0.516-1.272c0-0.488,0.159-0.889,0.476-1.203S62.126,34.433,62.666,34.433z"/>
	<path fill="#FFFFFF" d="M72.809,40.455v4.64c0,0.473,0.035,0.78,0.105,0.921c0.047,0.071,0.159,0.142,0.334,0.212
		c0.176,0.071,0.487,0.13,0.934,0.177c0.445,0.047,0.81,0.071,1.092,0.071v0.317h-9.086v-0.317c1.409,0,2.36-0.082,2.853-0.247
		l0.246-0.106c0.141-0.118,0.211-0.458,0.211-1.024V26.232c0-0.471-0.07-0.807-0.211-1.007c-0.141-0.2-0.27-0.312-0.387-0.335
		c-0.376-0.118-1.268-0.177-2.676-0.177v-0.317l6.585-0.599v16.023l4.437-4.443c0.705-0.687,1.057-1.303,1.057-1.848
		c0-0.45-0.247-0.8-0.739-1.049c-0.493-0.249-1.245-0.373-2.254-0.373v-0.352h8.064v0.352c-0.893,0-1.591,0.13-2.095,0.39
		c-0.505,0.26-1.192,0.79-2.061,1.592l-2.183,2.159l4.508,8.989c0.258,0.52,0.581,0.856,0.968,1.009
		c0.387,0.153,1.027,0.23,1.919,0.23v0.317h-8.593v-0.317c0.774,0,1.373-0.018,1.796-0.053c0.422-0.035,0.634-0.207,0.634-0.514
		c0-0.141-0.094-0.401-0.282-0.779l-3.311-6.578L72.809,40.455z"/>
	<path fill="#FFFFFF" d="M94.783,39.293v1.62c0,0.541,0.012,1.057,0.035,1.55c0,1.644-0.188,2.771-0.563,3.381
		c-0.517,0.845-1.514,1.268-2.993,1.268c-1.409,0-2.442-0.34-3.099-1.021c-0.658-0.681-0.986-1.655-0.986-2.923V33.165h-2.817
		v-0.317c1.926-0.472,3.377-1.591,4.352-3.36c0.785-1.415,1.177-3.007,1.177-4.775h0.599v7.431h4.05v1.021h-4.05v9.554
		c0,1.265,0.045,2.084,0.138,2.458c0.23,0.89,0.75,1.335,1.557,1.335c0.945,0,1.567-0.514,1.868-1.542
		c0.208-0.701,0.312-2.033,0.312-3.995v-1.682H94.783z"/>
	<path fill="#FFFFFF" d="M104.785,36.567v-2.053c0-0.943-0.15-1.58-0.45-1.91c-0.3-0.331-0.945-0.496-1.937-0.496
		c-0.807,0-1.516,0.156-2.124,0.468c-0.609,0.312-1.007,0.731-1.195,1.258c0.093-0.023,0.211-0.035,0.352-0.035
		c0.446,0,0.81,0.176,1.092,0.528c0.281,0.352,0.422,0.751,0.422,1.197c0,0.517-0.178,0.939-0.533,1.268
		c-0.355,0.329-0.77,0.493-1.244,0.493c-0.309,0-0.582-0.082-0.818-0.246c-0.688-0.446-1.031-1.009-1.031-1.69
		c0-0.329,0.07-0.705,0.211-1.127c0.329-0.916,1.15-1.585,2.465-2.007c0.938-0.305,1.89-0.458,2.853-0.458
		c1.737,0,3.052,0.328,3.944,0.984c0.798,0.585,1.197,1.323,1.197,2.213v7.764c0,1.405,0.035,2.272,0.106,2.6
		c0.163,0.797,0.586,1.195,1.268,1.195c0.609,0,1.021-0.315,1.232-0.945c0.211-0.63,0.316-1.54,0.316-2.731
		c0-0.326-0.006-0.653-0.018-0.98c-0.012-0.327-0.018-0.666-0.018-1.015v-0.315h0.423v1.549c0,0.493,0.012,0.963,0.035,1.409
		c0,1.362-0.165,2.278-0.495,2.747c-0.426,0.586-1.287,0.88-2.586,0.88c-1.015,0-1.77-0.174-2.266-0.523
		c-0.59-0.418-0.979-1.128-1.168-2.129c-0.494,1.14-1.232,1.908-2.219,2.304c-0.588,0.232-1.374,0.349-2.36,0.349
		c-0.986,0-1.843-0.235-2.571-0.706c-1.01-0.634-1.515-1.598-1.515-2.892c0-1.269,0.491-2.338,1.473-3.208
		c0.982-0.846,2.174-1.328,3.578-1.445c1.402-0.118,2.35-0.306,2.841-0.565C104.539,38.037,104.785,37.461,104.785,36.567z
		 M104.68,42.937V38.23c-0.282,0.378-0.699,0.608-1.251,0.69s-1.086,0.159-1.603,0.23c-0.682,0.165-1.221,0.542-1.62,1.132
		c-0.47,0.708-0.705,1.699-0.705,2.973c0,1.368,0.135,2.294,0.405,2.778c0.27,0.483,0.698,0.725,1.285,0.725
		c0.892,0,1.696-0.372,2.413-1.114C104.32,44.901,104.68,43.999,104.68,42.937z"/>
	<path fill="#FFFFFF" d="M118.695,31.756v13.341c0,0.472,0.035,0.778,0.105,0.92c0.047,0.071,0.152,0.142,0.316,0.212
		c0.494,0.165,1.515,0.248,3.064,0.248v0.317h-10.283v-0.317c0.681,0,1.297-0.024,1.849-0.071c0.552-0.047,1.026-0.142,1.427-0.284
		c0.141-0.118,0.211-0.461,0.211-1.029V34.092c0-0.449-0.047-0.733-0.141-0.852c-0.165-0.236-0.317-0.378-0.458-0.426
		c-0.423-0.118-1.386-0.177-2.888-0.177V32.32L118.695,31.756z M116.846,23.797c0.559,0,1.023,0.188,1.396,0.563
		c0.372,0.376,0.559,0.845,0.559,1.409s-0.187,1.033-0.559,1.409c-0.373,0.376-0.838,0.563-1.396,0.563s-1.023-0.188-1.396-0.563
		c-0.372-0.375-0.559-0.845-0.559-1.409s0.187-1.033,0.559-1.409C115.822,23.985,116.287,23.797,116.846,23.797z"/>
	<path fill="#FFFFFF" d="M129.964,45.102c0,0.47,0.036,0.776,0.106,0.917c0.047,0.07,0.152,0.141,0.316,0.211
		c0.493,0.165,1.514,0.247,3.064,0.247v0.317h-10.284v-0.317c0.681,0,1.298-0.023,1.849-0.07c0.552-0.047,1.027-0.142,1.427-0.283
		c0.142-0.118,0.212-0.458,0.212-1.024V26.232c0-0.471-0.07-0.801-0.212-0.99c-0.141-0.188-0.282-0.306-0.423-0.353
		c-0.422-0.118-1.361-0.177-2.816-0.177v-0.317l6.761-0.599V45.102z"/>
	<path fill="#FFFFFF" d="M152.045,26.304v18.16c0,0.683,0.046,1.119,0.141,1.307c0.047,0.095,0.188,0.188,0.422,0.283
		c0.682,0.259,2.078,0.389,4.191,0.389v0.352h-13.876v-0.352c1.009,0,1.884-0.035,2.624-0.106c0.739-0.07,1.244-0.159,1.514-0.265
		c0.27-0.105,0.446-0.235,0.529-0.388c0.082-0.153,0.123-0.56,0.123-1.219v-18.16c0-0.659-0.048-1.071-0.141-1.236
		c-0.048-0.094-0.2-0.188-0.459-0.283c-0.681-0.259-2.077-0.389-4.19-0.389v-0.317h13.911v0.317c-1.01,0-1.885,0.036-2.624,0.106
		c-0.739,0.07-1.263,0.164-1.567,0.282l-0.352,0.141C152.127,25.067,152.045,25.527,152.045,26.304z"/>
	<path fill="#FFFFFF" d="M163.947,38.16v6.937c0,0.472,0.035,0.778,0.105,0.92c0.047,0.071,0.158,0.142,0.335,0.212
		c0.176,0.071,0.493,0.13,0.95,0.177c0.459,0.047,0.863,0.07,1.215,0.07v0.317h-9.016v-0.317c0.518,0,1.027-0.023,1.533-0.07
		c0.504-0.047,0.956-0.142,1.355-0.284c0.141-0.118,0.211-0.46,0.211-1.027V34.371c0-0.212-0.006-0.425-0.018-0.637
		s-0.064-0.377-0.158-0.495l-0.211-0.354c-0.235-0.165-1.127-0.248-2.677-0.248V32.32l6.374-0.563v4.492
		c0.141-1.006,0.445-1.895,0.916-2.667c0.656-1.076,1.35-1.655,2.078-1.737c0.727-0.082,1.197-0.123,1.408-0.123
		c1.479,0,2.652,0.447,3.521,1.341c0.728,0.753,1.092,1.647,1.092,2.683v9.356c0,0.471,0.035,0.777,0.105,0.917
		c0.047,0.071,0.164,0.141,0.352,0.211c0.188,0.07,0.529,0.129,1.021,0.176c0.494,0.047,0.963,0.07,1.409,0.07v0.317h-9.016v-0.317
		c0.376,0,0.81-0.023,1.304-0.07c0.492-0.047,0.927-0.142,1.303-0.284c0.141-0.118,0.211-0.46,0.211-1.026v-8.954
		c0-1.132-0.094-1.994-0.281-2.583c-0.306-0.967-0.869-1.451-1.691-1.451c-1.08,0-1.96,0.672-2.641,2.018
		C164.522,35.141,164.158,36.485,163.947,38.16z"/>
	<path fill="#FFFFFF" d="M186.486,41.91c0,1.148-0.282,2.226-0.846,3.233c-0.729,1.312-1.738,1.968-3.029,1.968
		c-1.689,0-3.087-0.646-4.19-1.937c-1.197-1.409-1.796-3.346-1.796-5.811c0-1.69,0.551-3.311,1.655-4.86
		c1.291-1.832,2.923-2.747,4.896-2.747c1.057,0,1.889,0.585,2.5,1.755c0.423,0.819,0.692,1.719,0.811,2.702V26.23
		c0-0.47-0.07-0.799-0.212-0.988c-0.141-0.188-0.341-0.305-0.599-0.353c-0.587-0.118-1.902-0.177-3.944-0.177v-0.317l8.065-0.599
		v20.952c0,0.471,0.035,0.776,0.105,0.917c0.047,0.07,0.152,0.141,0.316,0.211c0.493,0.165,1.455,0.247,2.888,0.247v0.317
		l-6.62,0.669V41.91z M186.31,39.328c0-2.359-0.271-4.152-0.81-5.379c-0.541-1.227-1.28-1.84-2.219-1.84
		c-1.127,0-1.908,0.525-2.342,1.575c-0.436,1.05-0.652,2.955-0.652,5.715c0,2.5,0.129,4.247,0.388,5.237
		c0.376,1.439,1.15,2.159,2.325,2.159c0.797,0,1.514-0.602,2.147-1.805C185.922,43.55,186.31,41.663,186.31,39.328z"/>
	<path fill="#FFFFFF" d="M197.613,39.539c0,2.525,0.3,4.354,0.898,5.486s1.508,1.699,2.729,1.699c1.291,0,2.43-0.437,3.416-1.312
		c1.197-1.063,1.796-2.504,1.796-4.323h0.281c0,1.761-0.563,3.205-1.689,4.332s-2.63,1.69-4.508,1.69
		c-1.574,0-3.006-0.599-4.297-1.796c-1.526-1.409-2.289-3.251-2.289-5.529c0-2.465,0.751-4.472,2.254-6.022
		c1.314-1.338,2.794-2.007,4.438-2.007c1.525,0,2.793,0.446,3.803,1.338c1.479,1.315,2.219,3.463,2.219,6.444H197.613z
		 M203.671,39.117c0-2.276-0.202-4.014-0.608-5.211s-1.063-1.797-1.968-1.797c-1.276,0-2.176,0.57-2.698,1.708
		c-0.521,1.139-0.783,2.905-0.783,5.301H203.671z"/>
	<path fill="#FFFFFF" d="M214.482,40.138l-4.121-6.721c-0.328-0.542-0.668-0.896-1.021-1.061s-1.08-0.248-2.184-0.248v-0.352h9.086
		v0.352c-0.517,0-1.063,0.012-1.638,0.036c-0.575,0.024-0.863,0.177-0.863,0.461c0,0.166,0.119,0.438,0.357,0.815l2.391,3.9
		l1.786-2.482c0.429-0.686,0.644-1.229,0.644-1.631c0-0.732-0.646-1.099-1.938-1.099v-0.352h6.233v0.352
		c-1.479,0-2.688,0.532-3.627,1.595c-0.235,0.26-0.704,0.898-1.409,1.914l-1.443,2.056l4.613,7.496
		c0.375,0.59,0.646,0.932,0.811,1.026c0.328,0.188,1.044,0.283,2.147,0.283v0.317h-9.085v-0.317c1.807,0,2.711-0.189,2.711-0.567
		c0-0.212-0.095-0.46-0.285-0.744l-2.955-4.676l-2.281,3.153c-0.404,0.59-0.605,1.075-0.605,1.452c0,0.921,0.926,1.382,2.781,1.382
		v0.317h-7.431v-0.317c0.845,0,1.731-0.295,2.659-0.885c0.927-0.59,1.766-1.405,2.518-2.444L214.482,40.138z"/>
</g>
</svg>
