<?xml version="1.0" encoding="utf-8"?>
<!-- Generator: Adobe Illustrator 16.0.0, SVG Export Plug-In . SVG Version: 6.00 Build 0)  -->
<!DOCTYPE svg PUBLIC "-//W3C//DTD SVG 1.1//EN">
<svg version="1.1" id="Layer_1" xmlns="http://www.w3.org/2000/svg" xmlns:xlink="http://www.w3.org/1999/xlink" x="0px" y="0px"
	 width="500px" height="300px" viewBox="0 0 500 300" enable-background="new 0 0 500 300" xml:space="preserve">
<polygon fill="none" stroke="#58595B" stroke-width="0.4" stroke-miterlimit="10" points="178.542,53.896 239.734,118.331 
	300.248,53.896 "/>
<polyline fill="none" stroke="#58595B" stroke-width="3" stroke-miterlimit="10" points="253.26,257.001 246.534,254.778 
	246.534,245.331 "/>
<path fill="#FFFFFF" stroke="#58595B" stroke-width="3" stroke-miterlimit="10" d="M-12.333,12.333"/>
<path fill="none" d="M328.5,38.582"/>
<rect fill="#E6E7E8" width="500" height="300"/>
<polygon fill="#FFFFFF" stroke="#6D6E71" stroke-width="4" stroke-miterlimit="10" points="246.534,245.331 246.563,123 
	329.162,38.582 150.264,38.582 232.949,123.004 233.088,254.644 176.036,273.575 239.713,273.575 303.389,273.575 253.111,256.952 
	246.534,254.778 "/>
<g>
	<path d="M237.606,77.69c11.471,0,21.335,3.463,29.592,10.388c8.255,6.926,12.384,15.557,12.384,25.893
		c0,5.767-1.314,11.052-3.944,15.856c-2.629,4.804-5.825,8.995-9.587,12.573c-3.763,3.58-9.104,8.101-16.023,13.568
		c-6.921,5.467-11.673,10.388-14.256,14.762s-3.875,8.382-3.875,12.026c0,5.832-1.689,8.747-5.066,8.747
		c-1.788,0-3.015-0.678-3.676-2.035c-0.663-1.356-0.994-4.419-0.994-9.188c0-4.766,1.274-9.599,3.825-14.498
		c2.549-4.898,7.699-10.991,15.448-18.274c7.947-7.547,12.997-13.952,15.15-19.215c2.151-5.264,3.229-10.577,3.229-15.94
		c0-6.422-1.983-12.165-5.948-17.23c-3.966-5.065-9.188-7.598-15.664-7.598c-7.864,0-14.06,2.082-18.586,6.241
		c-4.528,4.16-6.791,9.477-6.791,15.95c0,3.567,0.785,6.62,2.356,9.163c1.571,2.543,3.6,3.814,6.088,3.814
		c0.801,0,1.52-0.115,2.155-0.346c0.635-0.231,1.287-0.348,1.956-0.348c1.537,0,3.089,0.576,4.66,1.726
		c1.571,1.152,2.356,2.484,2.356,3.996c0,2.698-1.229,4.818-3.688,6.364c-2.458,1.546-5.382,2.317-8.77,2.317
		c-4.917,0-9.236-2.181-12.957-6.546c-3.721-4.363-5.581-10.579-5.581-18.646c0-9.124,3.298-16.991,9.897-23.604
		C217.893,80.997,226.663,77.69,237.606,77.69z M229.265,203.161c2.66,0,5.106,0.989,7.336,2.967
		c2.229,1.978,3.343,4.68,3.343,8.107c0,2.637-1.06,4.911-3.179,6.822c-2.12,1.91-4.604,2.867-7.451,2.867
		c-2.875,0-5.431-1.039-7.669-3.114c-2.238-2.077-3.357-4.532-3.357-7.367c0-2.899,1.08-5.338,3.243-7.315
		C223.692,204.15,226.27,203.161,229.265,203.161z"/>
</g>
</svg>
