<?xml version="1.0" encoding="utf-8"?>
<!-- Generator: Adobe Illustrator 16.0.0, SVG Export Plug-In . SVG Version: 6.00 Build 0)  -->
<!DOCTYPE svg PUBLIC "-//W3C//DTD SVG 1.1//EN" >
<svg version="1.1" id="Layer_1" xmlns="http://www.w3.org/2000/svg" xmlns:xlink="http://www.w3.org/1999/xlink" x="0px" y="0px"
	 width="24px" height="24px" viewBox="0 0 24 24" enable-background="new 0 0 24 24" xml:space="preserve">
<path fill="none" d="M24,24H0V0h24V24z"/>
<path d="M19.75,4.21c-0.391-0.39-1.02-0.39-1.41,0L17.95,4.6c-0.39,0.391-0.38,1.021,0,1.4l0.01,0.01c0.39,0.391,1.021,0.391,1.41,0
	l0.39-0.39C20.141,5.221,20.141,4.6,19.75,4.21z M12.01,1H12c-0.55,0-0.99,0.439-0.99,0.99v0.96c0,0.55,0.44,0.989,0.99,0.989h0.01
	C12.561,3.939,13,3.5,13,2.95V1.99C13,1.439,12.561,1,12.01,1z M20.99,12.95h1.02c0.551,0,0.99-0.44,0.99-0.99v-0.01
	c0-0.55-0.439-0.99-0.99-0.99H21c-0.55,0-0.99,0.44-0.99,0.99v0.01C20,12.51,20.439,12.95,20.99,12.95z M9,17.141v3.81
	c0,0.55,0.45,1,1,1h4c0.55,0,1-0.45,1-1v-3.81c2.04-1.181,3.32-3.521,2.93-6.131c-0.4-2.609-2.56-4.699-5.18-5.02
	C9.109,5.55,6,8.391,6,11.94C6,14.17,7.21,16.1,9,17.141z M4,11.96v-0.01c0-0.55-0.439-0.99-0.99-0.99H2
	c-0.55,0-0.99,0.44-0.99,0.99v0.01c0,0.55,0.44,0.99,0.99,0.99h1.01C3.561,12.95,4,12.51,4,11.96z M6.061,4.59L5.67,4.2
	c-0.391-0.39-1.02-0.39-1.41,0c-0.39,0.39-0.39,1.021,0,1.409L4.65,6C5.04,6.391,5.67,6.38,6.05,6C6.45,5.6,6.45,4.98,6.061,4.59z"
	/>
</svg>
