<?xml version="1.0" encoding="utf-8"?>
<!-- Generator: Adobe Illustrator 16.0.0, SVG Export Plug-In . SVG Version: 6.00 Build 0)  -->
<!DOCTYPE svg PUBLIC "-//W3C//DTD SVG 1.1//EN" >
<svg version="1.1" id="Layer_1" xmlns="http://www.w3.org/2000/svg" xmlns:xlink="http://www.w3.org/1999/xlink" x="0px" y="0px"
	 width="595.001px" height="603.376px" viewBox="0 -387.376 595.001 603.376" enable-background="new 0 -387.376 595.001 603.376"
	 xml:space="preserve">
<g id="Layer_1_1_">
</g>
<path fill="#FFFFFF" d="M275.851-81.12c-14.99-1.4,17.653-6.93,17.653-6.93c1.594-54.507,0.185-64.844,0.185-64.844
	c-0.393-22.172-11.42-23.854-11.42-23.854c-28.243-7.35-35.163-27.154-35.163-27.154c-7.82-20.553,2.924-30.108,2.924-30.108h94.941
	c0,0,10.747,9.555,2.925,30.108c0,0-6.921,19.805-35.163,27.154c0,0-11.026,1.682-11.418,23.854c0,0-1.407,10.337,0.184,64.844
	c0,0,32.646,5.529,17.654,6.93H275.851z"/>
<g>
	<path fill="#FFFFFF" d="M196.504-28.915c0,4.027-0.77,6.961-2.315,8.795c-1.541,1.833-3.771,2.751-6.688,2.751
		c-3.307,0-6.101-1.001-8.379-3.001c-2.724-2.391-4.085-5.821-4.085-10.297c0-4.362,1.379-7.934,4.135-10.713
		c2.367-2.389,4.899-3.586,7.601-3.586c1.309,0,2.45,0.238,3.426,0.71c1.252,0.612,2.395,1.612,3.425,3.002l2.047-3.919h0.208
		v12.088l-0.333-0.208c0-3.571-0.989-6.436-2.968-8.597c-1.645-1.799-3.371-2.699-5.184-2.699c-2.422,0-4.166,1.117-5.225,3.35
		c-1.06,2.233-1.588,5.598-1.588,10.094c0,4.414,0.569,7.748,1.713,10.01c1.142,2.262,2.883,3.392,5.225,3.392
		c2.646,0,4.682-0.776,6.104-2.333c1.698-1.834,2.549-4.78,2.549-8.838H196.504L196.504-28.915z"/>
	<path fill="#FFFFFF" d="M214.846-26.499c0,2.696-0.932,4.933-2.793,6.711c-1.696,1.613-3.6,2.418-5.711,2.418
		c-2.168,0-4.06-0.75-5.669-2.251c-1.89-1.751-2.835-4.044-2.835-6.878c0-2.695,0.931-4.92,2.792-6.67
		c1.695-1.586,3.6-2.376,5.712-2.376c2.14,0,4.027,0.751,5.67,2.252C213.9-31.568,214.846-29.306,214.846-26.499z M210.511-26.499
		c0-3.084-0.266-5.252-0.793-6.503c-0.611-1.444-1.736-2.168-3.376-2.168c-1.502,0-2.572,0.695-3.211,2.085
		s-0.957,3.584-0.957,6.586c0,3.057,0.284,5.279,0.853,6.67c0.57,1.39,1.674,2.083,3.315,2.083c1.5,0,2.568-0.708,3.209-2.125
		S210.511-23.497,210.511-26.499z"/>
	<path fill="#FFFFFF" d="M228.642-32.376c-0.11-0.914-0.498-1.61-1.167-2.082c-0.667-0.473-1.496-0.71-2.488-0.71
		c-1.546,0-2.62,0.696-3.229,2.085c-0.608,1.39-0.912,3.586-0.912,6.586c0,2.779,0.392,4.883,1.174,6.314
		c0.78,1.431,1.825,2.145,3.139,2.145c1.562,0,2.886-0.508,3.975-1.531c1.368-1.299,2.052-3.205,2.052-5.721h0.334
		c0,2.446-0.642,4.379-1.917,5.795c-1.278,1.417-3.03,2.126-5.254,2.126c-1.807,0-3.486-0.722-5.043-2.167
		c-1.862-1.725-2.793-3.92-2.793-6.586c0-2.861,0.944-5.211,2.835-7.045c1.64-1.584,3.35-2.375,5.127-2.375
		c1.195,0,2.307,0.207,3.335,0.624c1.555,0.64,2.516,1.628,2.877,2.959c0.138,0.499,0.209,0.932,0.209,1.292
		c0,0.891-0.423,1.572-1.265,2.044c-0.309,0.194-0.673,0.291-1.094,0.291c-0.505,0-0.962-0.187-1.368-0.558
		c-0.406-0.369-0.611-0.871-0.611-1.504c0-0.578,0.189-1.053,0.564-1.425C227.497-32.19,228.003-32.376,228.642-32.376z"/>
	<path fill="#FFFFFF" d="M240.647-25.248v5.493c0,0.559,0.042,0.922,0.125,1.09c0.055,0.084,0.188,0.168,0.396,0.251
		c0.207,0.083,0.575,0.153,1.104,0.209c0.527,0.057,0.959,0.085,1.292,0.085v0.374h-10.754v-0.374c1.668,0,2.793-0.098,3.377-0.293
		l0.292-0.126c0.166-0.139,0.25-0.541,0.25-1.212v-22.332c0-0.557-0.084-0.954-0.25-1.191c-0.167-0.236-0.319-0.369-0.459-0.396
		c-0.445-0.14-1.501-0.21-3.166-0.21v-0.375l7.793-0.71v18.967l5.252-5.26c0.835-0.813,1.251-1.542,1.251-2.188
		c0-0.531-0.291-0.945-0.874-1.24c-0.585-0.295-1.475-0.441-2.668-0.441v-0.417h9.545v0.417c-1.059,0-1.884,0.153-2.48,0.462
		c-0.599,0.308-1.41,0.934-2.44,1.884l-2.583,2.555l5.337,10.641c0.304,0.615,0.687,1.014,1.146,1.193
		c0.458,0.182,1.215,0.273,2.271,0.273v0.374h-10.171v-0.374c0.916,0,1.626-0.021,2.126-0.063c0.499-0.042,0.751-0.245,0.751-0.608
		c0-0.167-0.112-0.477-0.335-0.923l-3.918-7.785L240.647-25.248z"/>
	<path fill="#FFFFFF" d="M266.657-26.624v1.92c0,0.64,0.014,1.25,0.041,1.833c0,1.946-0.223,3.28-0.666,4.001
		c-0.611,1.002-1.792,1.502-3.544,1.502c-1.666,0-2.889-0.402-3.667-1.208c-0.778-0.807-1.168-1.96-1.168-3.461v-11.839h-3.335
		v-0.375c2.281-0.559,3.998-1.883,5.152-3.979c0.93-1.674,1.394-3.559,1.394-5.651h0.709v8.796h4.794v1.209h-4.794v11.307
		c0,1.499,0.053,2.469,0.164,2.911c0.271,1.054,0.887,1.58,1.843,1.58c1.117,0,1.854-0.608,2.211-1.825
		c0.245-0.83,0.369-2.406,0.369-4.729v-1.992H266.657z"/>
	<path fill="#FFFFFF" d="M278.496-29.85v-2.43c0-1.116-0.179-1.87-0.533-2.261c-0.354-0.392-1.117-0.588-2.292-0.588
		c-0.956,0-1.795,0.186-2.516,0.555c-0.72,0.369-1.19,0.865-1.413,1.488c0.109-0.026,0.249-0.041,0.417-0.041
		c0.527,0,0.958,0.209,1.292,0.626c0.333,0.416,0.5,0.888,0.5,1.416c0,0.611-0.211,1.11-0.632,1.501
		c-0.42,0.389-0.91,0.583-1.473,0.583c-0.365,0-0.688-0.097-0.968-0.291c-0.814-0.527-1.221-1.194-1.221-1.999
		c0-0.391,0.083-0.836,0.25-1.335c0.39-1.084,1.361-1.876,2.918-2.376c1.111-0.361,2.236-0.541,3.376-0.541
		c2.057,0,3.613,0.388,4.67,1.164c0.944,0.691,1.416,1.566,1.416,2.619v9.189c0,1.663,0.041,2.689,0.125,3.078
		c0.193,0.942,0.693,1.414,1.501,1.414c0.721,0,1.209-0.372,1.458-1.119c0.25-0.744,0.374-1.822,0.374-3.23
		c0-0.387-0.006-0.774-0.021-1.161c-0.015-0.388-0.021-0.788-0.021-1.202v-0.373h0.5v1.834c0,0.584,0.015,1.14,0.042,1.668
		c0,1.613-0.195,2.697-0.586,3.252c-0.504,0.693-1.523,1.041-3.061,1.041c-1.201,0-2.095-0.206-2.682-0.618
		c-0.699-0.495-1.159-1.337-1.383-2.521c-0.585,1.35-1.459,2.26-2.626,2.727c-0.696,0.274-1.627,0.413-2.795,0.413
		c-1.167,0-2.18-0.276-3.042-0.834c-1.195-0.751-1.794-1.893-1.794-3.425c0-1.502,0.582-2.767,1.743-3.797
		c1.163-1.002,2.574-1.572,4.235-1.711c1.659-0.14,2.782-0.361,3.363-0.668C278.205-28.11,278.496-28.792,278.496-29.85z
		 M278.37-22.31v-5.571c-0.332,0.447-0.827,0.719-1.479,0.815c-0.654,0.098-1.287,0.189-1.898,0.273
		c-0.806,0.195-1.444,0.641-1.917,1.34c-0.557,0.838-0.835,2.011-0.835,3.52c0,1.618,0.16,2.714,0.479,3.287
		c0.319,0.572,0.825,0.857,1.521,0.857c1.055,0,2.007-0.439,2.855-1.317C277.945-19.985,278.37-21.052,278.37-22.31z"/>
	<path fill="#FFFFFF" d="M294.96-35.545v15.792c0,0.559,0.041,0.92,0.124,1.089c0.056,0.083,0.181,0.169,0.374,0.251
		c0.585,0.195,1.793,0.293,3.628,0.293v0.376h-12.172v-0.376c0.806,0,1.535-0.028,2.188-0.084c0.652-0.055,1.214-0.168,1.688-0.335
		c0.167-0.141,0.25-0.546,0.25-1.219v-13.021c0-0.53-0.056-0.867-0.167-1.009c-0.194-0.279-0.375-0.447-0.541-0.504
		c-0.501-0.14-1.642-0.209-3.419-0.209v-0.375L294.96-35.545z M292.772-44.966c0.661,0,1.21,0.224,1.651,0.668
		c0.441,0.445,0.661,0.999,0.661,1.668c0,0.668-0.22,1.223-0.661,1.668s-0.992,0.666-1.651,0.666c-0.662,0-1.212-0.223-1.653-0.666
		c-0.439-0.444-0.661-1-0.661-1.668c0-0.669,0.222-1.223,0.661-1.668C291.559-44.742,292.109-44.966,292.772-44.966z"/>
	<path fill="#FFFFFF" d="M308.299-19.747c0,0.557,0.042,0.919,0.124,1.086c0.057,0.083,0.181,0.166,0.375,0.249
		c0.583,0.195,1.791,0.292,3.627,0.292v0.376h-12.173v-0.376c0.806,0,1.537-0.025,2.188-0.081c0.654-0.058,1.216-0.169,1.689-0.336
		c0.168-0.141,0.25-0.543,0.25-1.212v-22.334c0-0.557-0.082-0.947-0.25-1.172c-0.168-0.221-0.334-0.361-0.502-0.417
		c-0.498-0.14-1.609-0.209-3.332-0.209v-0.376l8.003-0.709V-19.747z"/>
	<path fill="#FFFFFF" d="M334.434-41.997v21.495c0,0.808,0.056,1.325,0.168,1.546c0.056,0.113,0.223,0.223,0.5,0.336
		c0.806,0.307,2.46,0.46,4.96,0.46v0.416h-16.425v-0.416c1.195,0,2.231-0.041,3.106-0.124c0.875-0.084,1.472-0.189,1.793-0.314
		c0.319-0.125,0.526-0.277,0.625-0.459c0.097-0.182,0.146-0.663,0.146-1.444v-21.494c0-0.78-0.058-1.268-0.168-1.463
		c-0.056-0.111-0.236-0.224-0.544-0.334c-0.804-0.308-2.457-0.462-4.959-0.462v-0.375h16.466v0.375c-1.195,0-2.23,0.043-3.105,0.127
		c-0.873,0.083-1.496,0.193-1.854,0.332l-0.418,0.167C334.531-43.462,334.434-42.917,334.434-41.997z"/>
	<path fill="#FFFFFF" d="M348.521-27.964v8.211c0,0.559,0.042,0.92,0.125,1.089c0.055,0.083,0.187,0.169,0.397,0.251
		c0.208,0.084,0.583,0.154,1.123,0.209c0.543,0.056,1.021,0.084,1.438,0.084v0.374h-10.671v-0.374c0.612,0,1.215-0.028,1.813-0.084
		c0.597-0.055,1.131-0.168,1.604-0.335c0.166-0.141,0.249-0.546,0.249-1.216v-12.694c0-0.249-0.007-0.503-0.021-0.753
		c-0.016-0.252-0.076-0.447-0.188-0.586l-0.25-0.42c-0.278-0.195-1.333-0.293-3.168-0.293v-0.375l7.543-0.666v5.316
		c0.168-1.189,0.527-2.243,1.085-3.157c0.776-1.274,1.598-1.958,2.459-2.056c0.861-0.097,1.418-0.146,1.667-0.146
		c1.751,0,3.14,0.529,4.168,1.587c0.862,0.891,1.292,1.95,1.292,3.176v11.074c0,0.559,0.043,0.919,0.126,1.086
		c0.055,0.083,0.193,0.166,0.415,0.249c0.223,0.083,0.627,0.153,1.21,0.208c0.584,0.056,1.14,0.084,1.667,0.084v0.374h-10.671
		v-0.374c0.444,0,0.959-0.028,1.543-0.084c0.581-0.055,1.096-0.168,1.543-0.335c0.166-0.141,0.25-0.546,0.25-1.215v-10.599
		c0-1.341-0.112-2.359-0.333-3.057c-0.364-1.146-1.029-1.719-2.003-1.719c-1.277,0-2.32,0.796-3.125,2.391
		C349.203-31.538,348.771-29.946,348.521-27.964z"/>
	<path fill="#FFFFFF" d="M375.199-23.526c0,1.36-0.333,2.637-1.001,3.828c-0.862,1.553-2.058,2.329-3.586,2.329
		c-1.998,0-3.652-0.765-4.958-2.294c-1.418-1.666-2.126-3.959-2.126-6.877c0-2,0.652-3.918,1.959-5.752
		c1.528-2.169,3.46-3.253,5.794-3.253c1.253,0,2.237,0.694,2.96,2.079c0.501,0.969,0.819,2.033,0.96,3.196v-11.815
		c0-0.557-0.083-0.945-0.252-1.17c-0.166-0.221-0.402-0.359-0.708-0.417c-0.694-0.14-2.25-0.209-4.669-0.209v-0.376l9.547-0.709
		v24.799c0,0.558,0.041,0.92,0.123,1.087c0.058,0.082,0.181,0.166,0.375,0.249c0.584,0.195,1.722,0.292,3.419,0.292v0.376
		l-7.837,0.791V-23.526L375.199-23.526z M374.991-26.582c0-2.792-0.32-4.915-0.959-6.366c-0.64-1.451-1.515-2.178-2.625-2.178
		c-1.336,0-2.259,0.621-2.773,1.864c-0.516,1.243-0.771,3.497-0.771,6.765c0,2.959,0.153,5.027,0.46,6.199
		c0.444,1.703,1.361,2.554,2.752,2.554c0.943,0,1.793-0.712,2.541-2.136C374.532-21.583,374.991-23.817,374.991-26.582z"/>
	<path fill="#FFFFFF" d="M388.369-26.332c0,2.989,0.356,5.154,1.063,6.493c0.708,1.342,1.785,2.012,3.23,2.012
		c1.528,0,2.877-0.518,4.044-1.554c1.416-1.257,2.126-2.964,2.126-5.116h0.333c0,2.084-0.667,3.794-2,5.128s-3.113,2-5.335,2
		c-1.863,0-3.559-0.709-5.087-2.126c-1.807-1.668-2.709-3.848-2.709-6.543c0-2.919,0.889-5.295,2.668-7.129
		c1.556-1.584,3.307-2.375,5.252-2.375c1.806,0,3.306,0.527,4.501,1.583c1.752,1.556,2.628,4.099,2.628,7.627H388.369z
		 M395.541-26.831c0-2.693-0.238-4.751-0.719-6.168c-0.481-1.418-1.26-2.127-2.33-2.127c-1.51,0-2.576,0.675-3.193,2.021
		c-0.617,1.35-0.927,3.438-0.927,6.275h7.169V-26.831z"/>
	<path fill="#FFFFFF" d="M408.337-25.622l-4.878-7.955c-0.388-0.643-0.791-1.061-1.208-1.257c-0.417-0.195-1.278-0.294-2.586-0.294
		v-0.417h10.756v0.417c-0.611,0-1.259,0.016-1.938,0.043c-0.682,0.028-1.022,0.209-1.022,0.546c0,0.196,0.142,0.519,0.424,0.964
		l2.829,4.617l2.113-2.939c0.509-0.811,0.763-1.453,0.763-1.93c0-0.865-0.765-1.301-2.293-1.301v-0.417h7.377v0.417
		c-1.75,0-3.182,0.631-4.293,1.889c-0.277,0.307-0.834,1.063-1.668,2.265l-1.707,2.435l5.46,8.873
		c0.443,0.697,0.764,1.103,0.96,1.213c0.388,0.223,1.235,0.336,2.54,0.336v0.374h-10.752v-0.374c2.139,0,3.208-0.225,3.208-0.671
		c0-0.252-0.112-0.546-0.337-0.88l-3.497-5.535l-2.7,3.73c-0.479,0.699-0.717,1.272-0.717,1.72c0,1.09,1.095,1.636,3.291,1.636
		v0.374h-8.796v-0.374c1.001,0,2.051-0.35,3.148-1.047c1.098-0.699,2.091-1.664,2.98-2.895L408.337-25.622z"/>
</g>
</svg>
