<?xml version="1.0" encoding="utf-8"?>
<!-- Generator: Adobe Illustrator 16.0.0, SVG Export Plug-In . SVG Version: 6.00 Build 0)  -->
<!DOCTYPE svg PUBLIC "-//W3C//DTD SVG 1.1//EN" "http://www.w3.org/Graphics/SVG/1.1/DTD/svg11.dtd">
<svg version="1.1" id="Layer_1" xmlns="http://www.w3.org/2000/svg" xmlns:xlink="http://www.w3.org/1999/xlink" x="0px" y="0px"
	 width="500px" height="300px" viewBox="0 0 500 300" enable-background="new 0 0 500 300" xml:space="preserve">
<polygon fill="none" stroke="#58595B" stroke-width="0.4" stroke-miterlimit="10" points="178.542,53.896 239.734,118.331 
	300.248,53.896 "/>
<polyline fill="none" stroke="#58595B" stroke-width="3" stroke-miterlimit="10" points="253.26,257.001 246.534,254.778 
	246.534,245.331 "/>
<path fill="#FFFFFF" stroke="#58595B" stroke-width="3" stroke-miterlimit="10" d="M-12.333,12.333"/>
<path fill="none" d="M328.5,38.582"/>
<rect fill="#E6E7E8" width="500" height="300"/>
<polygon fill="#FFFFFF" stroke="#58595B" stroke-width="4" stroke-miterlimit="10" points="256.354,229.896 256.378,128.72 
	324.693,58.901 176.733,58.901 245.119,128.724 245.233,237.598 198.048,253.256 250.713,253.256 303.377,253.256 261.795,239.507 
	256.354,237.709 "/>
<g>
	<path d="M248.32,72.14c11.365-0.327,21.238,2.823,29.614,9.449c8.377,6.627,12.714,15.06,13.008,25.302
		c0.164,5.713-0.987,10.987-3.456,15.822c-2.468,4.835-5.516,9.079-9.14,12.73c-3.627,3.653-8.79,8.286-15.489,13.899
		c-6.702,5.613-11.271,10.624-13.704,15.031c-2.435,4.408-3.6,8.416-3.497,12.026c0.166,5.779-1.424,8.716-4.771,8.812
		c-1.772,0.052-3.006-0.587-3.7-1.913c-0.695-1.325-1.11-4.35-1.246-9.074c-0.136-4.722,0.989-9.547,3.376-14.473
		c2.386-4.926,7.315-11.109,14.785-18.546c7.659-7.704,12.479-14.193,14.464-19.469c1.98-5.276,2.896-10.571,2.743-15.885
		c-0.183-6.362-2.312-11.996-6.383-16.902c-4.074-4.905-9.32-7.266-15.737-7.082c-7.79,0.224-13.87,2.462-18.236,6.713
		c-4.368,4.25-6.458,9.583-6.274,15.996c0.102,3.534,0.967,6.537,2.596,9.01c1.629,2.475,3.674,3.676,6.14,3.605
		c0.793-0.023,1.502-0.157,2.125-0.404c0.622-0.248,1.265-0.381,1.927-0.4c1.523-0.044,3.078,0.482,4.667,1.578
		c1.589,1.096,2.406,2.393,2.449,3.891c0.077,2.673-1.082,4.809-3.474,6.411c-2.391,1.602-5.266,2.45-8.623,2.546
		c-4.872,0.14-9.213-1.897-13.023-6.116c-3.811-4.218-5.83-10.322-6.06-18.314c-0.26-9.041,2.784-16.928,9.133-23.667
		C228.882,75.977,237.477,72.451,248.32,72.14z M243.629,196.69c2.635-0.076,5.087,0.835,7.353,2.73
		c2.264,1.895,3.445,4.542,3.542,7.938c0.075,2.612-0.91,4.896-2.954,6.85c-2.046,1.953-4.481,2.972-7.301,3.053
		c-2.848,0.082-5.411-0.875-7.687-2.866c-2.277-1.993-3.456-4.396-3.537-7.205c-0.083-2.871,0.918-5.319,3.004-7.339
		C238.136,197.83,240.662,196.775,243.629,196.69z"/>
</g>
</svg>
